<svg id="Layer_1" xmlns="http://www.w3.org/2000/svg" viewBox="0 0 413.4 99.2"><style>.st0{fill:#00c0f3}</style><title>Logo_AcceptEasy_480px</title><path class="st0" d="M67.7 31.4c-4.7 0-7.1 5.5-10.8 17.2 1.3.2 2.6.4 3.8.4 2.7 0 4.9-.9 6.1-2.5 2.4-3.7 3.8-7.9 4.1-12.2-.1-2-.9-2.9-3.2-2.9M29.9 61.2c0 4.5 1.2 6.4 4.7 6.4 6 0 8.4-6.1 11.2-18.7-1.8-.1-3.3-.2-4.5-.2-7.7.1-11.4 3.9-11.4 12.5M95 39.4L59.8 4.2c-5.6-5.6-14.7-5.6-20.3 0L4.2 39.4c-5.6 5.6-5.6 14.7 0 20.3L39.4 95c5.6 5.6 14.7 5.6 20.3 0L95 59.8c5.6-5.6 5.6-14.7 0-20.4M63.6 50.5c-2.3-.1-4.7-.3-7-.6-1.3 5.5-2 9.4-2 11.7 0 4.1 2.1 6.2 6.2 6.2 5.2 0 9.6-2.6 14.1-8l.9.9c-4.3 5.7-9.5 8.5-16.1 8.5-5.8 0-10.2-1.8-13.7-5.6-3.2 3.8-7.4 5.5-12.8 5.5-8.8 0-13.3-3.2-13.3-9 0-9.9 5.8-12.7 20.1-12.7 2 0 4.1.1 6.3.2 1-4.6 1.8-7.6 1.8-9.4 0-4.4-2.5-6.8-7.1-6.8-3.9 0-6.1 1.7-6.1 3 0 .8 2.7 2 2.7 4.9s-2 4.8-5.1 4.8c-3.3 0-5.2-2-5.2-5 0-5 5.1-9 13.6-9 6.5 0 10.8 2 13 6.2 3.7-3.9 8.7-6.1 14.1-6.3 6.8 0 11.4 4 11.4 9.2 0 6.2-6.4 11.3-15.8 11.3"/><path d="M143.4 69.1l-5-12.8h-16.1l-5 12.8h-4.7l15.9-40.4h3.9l15.8 40.4h-4.8zm-6.5-17l-4.7-12.5c-.6-1.6-1.2-3.5-1.9-5.8-.4 1.8-1 3.7-1.7 5.8l-4.7 12.5h13zM165.1 69.7c-4.4 0-7.7-1.3-10.1-4-2.4-2.7-3.6-6.5-3.6-11.4 0-5 1.2-8.9 3.6-11.7s5.9-4.1 10.4-4.1c1.4 0 2.9.2 4.3.5s2.6.7 3.4 1.1l-1.4 3.9c-1-.4-2.1-.7-3.3-1s-2.2-.4-3.2-.4c-6.1 0-9.2 3.9-9.2 11.7 0 3.7.7 6.5 2.2 8.5s3.7 3 6.6 3c2.5 0 5.1-.5 7.7-1.6v4c-1.8.9-4.3 1.5-7.4 1.5zM191.9 69.7c-4.4 0-7.7-1.3-10.1-4-2.4-2.7-3.6-6.5-3.6-11.4 0-5 1.2-8.9 3.6-11.7s5.9-4.1 10.4-4.1c1.4 0 2.9.2 4.3.5s2.6.7 3.4 1.1l-1.4 3.9c-1-.4-2.1-.7-3.3-1s-2.2-.4-3.2-.4c-6.1 0-9.2 3.9-9.2 11.7 0 3.7.7 6.5 2.2 8.5s3.7 3 6.6 3c2.5 0 5.1-.5 7.7-1.6v4c-1.8.9-4.3 1.5-7.4 1.5zM219.4 69.7c-4.5 0-8-1.4-10.5-4.1-2.6-2.7-3.9-6.5-3.9-11.3 0-4.9 1.2-8.7 3.6-11.6 2.4-2.9 5.6-4.3 9.6-4.3 3.8 0 6.8 1.2 9 3.7s3.3 5.8 3.3 9.8v2.9h-20.8c.1 3.5 1 6.2 2.7 8.1 1.7 1.8 4.1 2.8 7.2 2.8 3.2 0 6.5-.7 9.6-2v4.1c-1.6.7-3.1 1.2-4.6 1.5-1.4.2-3.1.4-5.2.4zm-1.2-27.4c-2.4 0-4.3.8-5.8 2.4-1.4 1.6-2.3 3.8-2.5 6.5h15.8c0-2.9-.6-5.1-1.9-6.6-1.4-1.6-3.2-2.3-5.6-2.3zM252.3 69.7c-2 0-3.8-.4-5.4-1.1-1.6-.7-3-1.8-4.1-3.3h-.3c.2 1.8.3 3.4.3 5v12.4h-4.6V39h3.7l.6 4.1h.2c1.2-1.7 2.5-2.8 4.1-3.6 1.6-.7 3.3-1.1 5.4-1.1 4 0 7.1 1.4 9.3 4.1 2.2 2.7 3.3 6.6 3.3 11.5 0 5-1.1 8.8-3.3 11.5-2.2 2.8-5.3 4.2-9.2 4.2zm-.6-27.4c-3.1 0-5.3.9-6.7 2.6s-2.1 4.4-2.1 8.1v1c0 4.2.7 7.3 2.1 9.1 1.4 1.8 3.7 2.7 6.8 2.7 2.6 0 4.6-1.1 6.1-3.2s2.2-5 2.2-8.7c0-3.8-.7-6.6-2.2-8.6-1.5-2-3.6-3-6.2-3zM282.5 65.9c.8 0 1.6-.1 2.3-.2.8-.1 1.3-.2 1.8-.4v3.5c-.5.2-1.2.4-2.2.6s-1.8.2-2.6.2c-5.8 0-8.7-3.1-8.7-9.2V42.5h-4.3v-2.2l4.3-1.9L275 32h2.6v7h8.7v3.5h-8.7v17.7c0 1.8.4 3.2 1.3 4.2 1 1 2.1 1.5 3.6 1.5z"/><g><path d="M316.1 69.1h-23.2V28.9h23.2v7h-14.6v8.8H315v7h-13.6v10.4H316v7h.1zM343.3 69.1l-1.6-4.2h-.2c-1.4 1.8-2.9 3-4.4 3.7s-3.4 1-5.8 1c-3 0-5.3-.8-7-2.5s-2.5-4.1-2.5-7.2c0-3.3 1.1-5.7 3.4-7.2s5.7-2.4 10.3-2.6l5.3-.2v-1.3c0-3.1-1.6-4.7-4.8-4.7-2.5 0-5.3.7-8.7 2.2l-2.8-5.7c3.5-1.9 7.5-2.8 11.8-2.8 4.1 0 7.3.9 9.5 2.7s3.3 4.5 3.3 8.2V69l-5.8.1zm-2.5-14.2l-3.2.1c-2.4.1-4.3.5-5.4 1.3-1.2.8-1.8 2-1.8 3.7 0 2.4 1.4 3.5 4.1 3.5 1.9 0 3.5-.6 4.7-1.7s1.7-2.6 1.7-4.5v-2.4h-.1zM379.2 60c0 3.2-1.1 5.6-3.3 7.2-2.2 1.6-5.5 2.5-9.8 2.5-2.2 0-4.1-.2-5.7-.5s-3.1-.7-4.4-1.3V61c1.6.7 3.3 1.3 5.3 1.8s3.7.7 5.2.7c3 0 4.6-.9 4.6-2.6 0-.7-.2-1.2-.6-1.6-.4-.4-1.1-.9-2.1-1.4s-2.3-1.1-4-1.8c-2.4-1-4.1-1.9-5.2-2.8-1.1-.8-1.9-1.8-2.4-2.9-.5-1.1-.8-2.4-.8-4 0-2.7 1.1-4.8 3.2-6.3s5.1-2.2 9-2.2c3.7 0 7.3.8 10.8 2.4l-2.5 6c-1.5-.7-3-1.2-4.3-1.6-1.3-.4-2.7-.6-4.1-.6-2.5 0-3.7.7-3.7 2 0 .8.4 1.4 1.2 2s2.5 1.4 5.2 2.4c2.4 1 4.2 1.9 5.3 2.7 1.1.8 1.9 1.8 2.5 2.9.4 1.1.6 2.4.6 3.9zM381.4 38.4h9.2l5.8 17.3c.5 1.5.8 3.3 1 5.3h.2c.2-1.9.6-3.7 1.2-5.3l5.7-17.3h9l-13 34.7c-1.2 3.2-2.9 5.6-5.1 7.2s-4.8 2.4-7.7 2.4c-1.4 0-2.9-.2-4.3-.5v-6.7c1 .2 2.1.4 3.3.4 1.5 0 2.8-.5 3.9-1.4s2-2.3 2.6-4.1l.5-1.5-12.3-30.5z"/></g></svg>